<svg width="127" height="53" viewBox="0 0 127 53" fill="none" xmlns="http://www.w3.org/2000/svg">
<path d="M1.33002 0.310059H0.0200195V52.9001H1.33002V0.310059Z" fill="#414042"/>
<path d="M34.09 18.92C32.69 19.76 30.68 20.18 28.06 20.18C26.59 20.18 25.16 20.04 23.76 19.77C22.37 19.49 21.13 19.11 20.04 18.61L21.2101 15.7C22.2401 16.18 23.37 16.56 24.58 16.82C25.8 17.09 27 17.22 28.19 17.22C29.59 17.22 30.67 17.08 31.42 16.79C32.17 16.5 32.54 16.08 32.54 15.53C32.54 15.13 32.3701 14.83 32.0201 14.63C31.67 14.42 31.06 14.26 30.18 14.13L26.15 13.58C24.27 13.33 22.89 12.86 22.01 12.18C21.13 11.5 20.69 10.56 20.69 9.36003C20.69 7.86003 21.37 6.68003 22.72 5.82003C24.07 4.96003 25.91 4.53003 28.25 4.53003C29.62 4.53003 30.96 4.65003 32.26 4.90003C33.56 5.15003 34.71 5.50003 35.72 5.95003L34.55 8.71003C33.56 8.30003 32.52 7.99003 31.44 7.79003C30.36 7.59003 29.24 7.48003 28.08 7.48003C26.88 7.48003 25.95 7.62003 25.3 7.89003C24.65 8.17003 24.3201 8.57003 24.3201 9.09003C24.3201 9.47003 24.51 9.76003 24.89 9.96003C25.27 10.16 25.95 10.33 26.93 10.47L30.84 11.02C32.71 11.29 34.06 11.76 34.91 12.44C35.76 13.12 36.18 14.07 36.18 15.28C36.19 16.86 35.49 18.08 34.09 18.92Z" fill="#414042"/>
<path d="M38.12 10.95V8.22998H50.11V10.59L42.7 17.19H50.51V19.89H37.9V17.56L45.31 10.96H38.12V10.95Z" fill="#414042"/>
<path d="M52.3 24.38V21.56H55.2701C55.8101 21.56 56.2401 21.44 56.5701 21.19C56.9001 20.94 57.15 20.57 57.3 20.08L51.2701 8.23999H55.28L59.14 16.79L62.92 8.23999H66.68L60.08 21.48C59.5 22.64 58.8801 23.41 58.2101 23.8C57.5401 24.19 56.51 24.38 55.09 24.38H52.3Z" fill="#414042"/>
<path d="M67.9 19.88V4.01001H71.32V9.61001C71.89 9.06001 72.56 8.64001 73.35 8.36001C74.14 8.08001 74.99 7.94001 75.93 7.94001C77.9 7.94001 79.5 8.51001 80.75 9.64001C81.99 10.77 82.62 12.25 82.62 14.08C82.62 15.89 82 17.36 80.75 18.49C79.51 19.62 77.9 20.19 75.93 20.19C74.97 20.19 74.08 20.04 73.28 19.74C72.47 19.44 71.79 19.02 71.24 18.47V19.89H67.9V19.88ZM78.07 16.49C78.77 15.88 79.12 15.08 79.12 14.07C79.12 13.06 78.77 12.26 78.06 11.64C77.35 11.02 76.43 10.72 75.28 10.72C74.09 10.72 73.13 11.03 72.4 11.64C71.67 12.26 71.31 13.07 71.31 14.07C71.31 15.07 71.67 15.88 72.4 16.49C73.13 17.1 74.09 17.4 75.28 17.4C76.44 17.4 77.37 17.1 78.07 16.49Z" fill="#414042"/>
<path d="M87.9901 17.04V19.88H84.5701V4.01001H87.9901V13.43L94.2501 8.23001H98.6801L93.0001 12.94L98.8601 19.88H94.4501L90.4801 14.94L87.9901 17.04Z" fill="#414042"/>
<path d="M100.86 6.46003C100.48 6.10003 100.3 5.64003 100.3 5.09003C100.3 4.54003 100.49 4.08003 100.86 3.71003C101.23 3.34003 101.72 3.16003 102.31 3.16003C102.9 3.16003 103.39 3.34003 103.76 3.71003C104.13 4.08003 104.32 4.54003 104.32 5.09003C104.32 5.63003 104.13 6.08003 103.76 6.45003C103.38 6.82003 102.9 7.00003 102.31 7.00003C101.72 7.00003 101.24 6.82003 100.86 6.46003ZM100.6 19.88V8.23003H104.02V19.88H100.6Z" fill="#414042"/>
<path d="M107.54 18.5701C106.22 17.5001 105.56 16.0001 105.56 14.0901C105.56 12.2801 106.25 10.8001 107.62 9.65005C108.99 8.50005 110.77 7.93005 112.95 7.93005C115.09 7.93005 116.82 8.44005 118.14 9.46005C119.46 10.4801 120.12 11.7901 120.12 13.3901C120.12 13.5301 120.12 13.6701 120.11 13.8101C120.1 13.9501 120.09 14.2801 120.06 14.8101H109.07C109.18 15.6301 109.62 16.2701 110.38 16.7201C111.14 17.1701 112.14 17.4001 113.38 17.4001C114.27 17.4001 115.13 17.2701 115.96 17.0001C116.79 16.7301 117.47 16.3601 118.01 15.9001L119.83 17.9601C119.21 18.6501 118.29 19.2001 117.08 19.5901C115.87 19.9901 114.53 20.1801 113.06 20.1801C110.7 20.1801 108.86 19.6401 107.54 18.5701ZM110.46 11.0801C109.78 11.4601 109.35 11.9901 109.17 12.6701H116.51C116.4 12.0001 116.03 11.4801 115.41 11.0901C114.79 10.7001 113.98 10.5101 112.99 10.5101C111.98 10.5001 111.14 10.6901 110.46 11.0801Z" fill="#414042"/>
<path d="M34.2 40.43V30.28H37.62V45.35H34.2401L24.18 35.18V45.35H20.76V30.28H24.18L34.2 40.43Z" fill="#414042"/>
<path d="M41.5401 43.99C40.3101 42.89 39.6901 41.4 39.6901 39.53C39.6901 37.69 40.3201 36.21 41.5701 35.08C42.8201 33.96 44.4601 33.39 46.4801 33.39C47.4101 33.39 48.2701 33.55 49.0601 33.86C49.8501 34.17 50.5201 34.62 51.0901 35.2V33.7H54.3801V45.35H51.0901V43.84C50.5201 44.42 49.8501 44.87 49.0601 45.18C48.2701 45.49 47.4201 45.65 46.4801 45.65C44.4201 45.65 42.7701 45.09 41.5401 43.99ZM49.9101 41.96C50.6201 41.36 50.9801 40.55 50.9801 39.53C50.9801 38.5 50.6201 37.68 49.9101 37.08C49.1901 36.48 48.2301 36.18 47.0101 36.18C45.8501 36.18 44.9201 36.48 44.2201 37.09C43.5201 37.7 43.1701 38.51 43.1701 39.53C43.1701 40.53 43.5201 41.34 44.2201 41.95C44.9201 42.56 45.8501 42.86 47.0101 42.86C48.2301 42.87 49.2001 42.57 49.9101 41.96Z" fill="#414042"/>
<path d="M58.2201 43.9901C56.9901 42.8901 56.3701 41.4001 56.3701 39.5301C56.3701 37.6901 57.0001 36.2101 58.2501 35.0801C59.5001 33.9601 61.1401 33.3901 63.1601 33.3901C64.0601 33.3901 64.9001 33.5301 65.6701 33.8201C66.4401 34.1101 67.1001 34.5301 67.6501 35.0801V29.4601H71.0501V45.3301H67.7601V43.8201C67.1901 44.4001 66.5201 44.8501 65.7301 45.1601C64.9401 45.4701 64.0901 45.6301 63.1501 45.6301C61.1001 45.6501 59.4501 45.0901 58.2201 43.9901ZM66.5801 41.9601C67.3001 41.3601 67.6601 40.5501 67.6601 39.5301C67.6601 38.5101 67.3001 37.7001 66.5801 37.0901C65.8601 36.4801 64.9001 36.1801 63.6901 36.1801C62.5101 36.1801 61.5801 36.4801 60.8901 37.0901C60.2001 37.7001 59.8501 38.5101 59.8501 39.5301C59.8501 40.5501 60.2001 41.3601 60.8901 41.9601C61.5801 42.5601 62.5201 42.8601 63.6901 42.8601C64.9001 42.8701 65.8601 42.5701 66.5801 41.9601Z" fill="#414042"/>
<path d="M74.9 43.99C73.67 42.89 73.05 41.4 73.05 39.53C73.05 37.69 73.68 36.21 74.93 35.08C76.18 33.95 77.82 33.39 79.84 33.39C80.77 33.39 81.63 33.55 82.42 33.86C83.21 34.17 83.88 34.62 84.45 35.2V33.7H87.7401V45.35H84.45V43.84C83.88 44.42 83.21 44.87 82.42 45.18C81.63 45.49 80.78 45.65 79.84 45.65C77.78 45.65 76.13 45.09 74.9 43.99ZM83.2701 41.96C83.9801 41.36 84.34 40.55 84.34 39.53C84.34 38.5 83.9801 37.68 83.2701 37.08C82.55 36.48 81.59 36.18 80.37 36.18C79.21 36.18 78.28 36.48 77.58 37.09C76.88 37.7 76.53 38.51 76.53 39.53C76.53 40.53 76.88 41.34 77.58 41.95C78.28 42.56 79.21 42.86 80.37 42.86C81.59 42.87 82.5601 42.57 83.2701 41.96Z" fill="#414042"/>
<path d="M90.39 45.35V33.7H93.72V35.46C94.13 34.82 94.7301 34.32 95.5201 33.95C96.3101 33.58 97.23 33.4 98.26 33.4C99.11 33.4 99.87 33.52 100.54 33.75C101.21 33.98 101.8 34.33 102.31 34.8C102.83 35.3 103.21 35.92 103.45 36.68C103.68 37.44 103.8 38.43 103.8 39.66V45.35H100.38V39.58C100.38 38.91 100.3 38.37 100.15 37.95C99.99 37.53 99.75 37.19 99.43 36.93C99.16 36.72 98.85 36.56 98.51 36.45C98.16 36.34 97.79 36.29 97.4 36.29C96.59 36.29 95.89 36.48 95.29 36.85C94.69 37.23 94.27 37.74 94.03 38.39C93.96 38.59 93.91 38.81 93.87 39.06C93.83 39.31 93.8201 39.58 93.8201 39.88V45.36H90.39V45.35Z" fill="#414042"/>
<path d="M106.51 31.93C106.13 31.57 105.95 31.11 105.95 30.56C105.95 30.01 106.14 29.55 106.51 29.18C106.88 28.81 107.37 28.63 107.96 28.63C108.55 28.63 109.04 28.81 109.41 29.18C109.78 29.55 109.97 30.01 109.97 30.56C109.97 31.1 109.78 31.55 109.41 31.92C109.03 32.29 108.55 32.47 107.96 32.47C107.37 32.47 106.89 32.29 106.51 31.93ZM106.25 45.35V33.7H109.67V45.35H106.25Z" fill="#414042"/>
<path d="M113.48 43.99C112.25 42.89 111.63 41.4 111.63 39.53C111.63 37.69 112.26 36.21 113.51 35.08C114.76 33.96 116.4 33.39 118.42 33.39C119.35 33.39 120.21 33.55 121 33.86C121.79 34.17 122.46 34.62 123.03 35.2V33.7H126.32V45.35H123.03V43.84C122.46 44.42 121.79 44.87 121 45.18C120.21 45.49 119.36 45.65 118.42 45.65C116.36 45.65 114.71 45.09 113.48 43.99ZM121.85 41.96C122.56 41.36 122.92 40.55 122.92 39.53C122.92 38.5 122.56 37.68 121.85 37.08C121.13 36.48 120.17 36.18 118.95 36.18C117.79 36.18 116.86 36.48 116.16 37.09C115.46 37.7 115.11 38.51 115.11 39.53C115.11 40.53 115.46 41.34 116.16 41.95C116.86 42.56 117.79 42.86 118.95 42.86C120.17 42.87 121.14 42.57 121.85 41.96Z" fill="#414042"/>
</svg>
