<svg width="44" height="36" viewBox="0 0 44 36" fill="none" xmlns="http://www.w3.org/2000/svg">
<path d="M0.36554 35.9807V30.7855H1.13511V5.98718H0.36554V0.231812H44V5.98718H43.3843V30.7855H44V36.0001L0.36554 35.9807Z" fill="white"/>
<path d="M25.7997 13.1138H18.8159V20.1245H25.7997V13.1138Z" fill="#FFCD00"/>
<path d="M26.3577 16.6095L40.6524 16.6288M3.61698 16.6095L18.3542 16.6288M3.61698 24.6632L40.6716 24.6825M3.61698 20.5494L40.6716 20.5688M3.61698 12.6696L40.6716 12.6889M34.1303 5.98721V30.8048M26.2615 5.98721V30.8048M18.3542 5.98721V30.8048M10.4469 5.98721V30.8048M42.0376 32.1374L2.57806 32.1181V4.73184L42.0376 4.75116V32.1374ZM42.7495 34.4937L1.73154 34.4743V32.1181L42.7687 32.1374V34.4937H42.7495ZM42.7495 4.75116L1.73154 4.73184V1.73828H42.7687V4.75116H42.7495Z" stroke="#404041" stroke-width="1.5" stroke-miterlimit="10"/>
<path d="M26.3577 1.73828H42.7495V4.75116H42.0376V32.1374H42.7495V34.4937" stroke="#404041" stroke-miterlimit="10"/>
</svg>
