<svg width="120" height="70" viewBox="0 0 120 70" fill="none" xmlns="http://www.w3.org/2000/svg">
<path d="M48.6499 52.0372C48.6499 51.3758 48.1651 50.9348 47.3894 50.9348C46.6138 50.9348 46.129 51.3513 46.129 52.0372C46.129 52.6985 46.6138 53.115 47.3894 53.115C48.1651 53.1395 48.6499 52.723 48.6499 52.0372ZM45.6684 53.4824C45.2321 53.115 45.0381 52.6496 45.0381 52.0372C45.0381 51.4248 45.2563 50.9348 45.6684 50.5919C46.1047 50.2244 46.6865 50.053 47.4137 50.053C48.1409 50.053 48.7226 50.2244 49.1347 50.5919C49.5711 50.9593 49.7892 51.4248 49.7892 52.0372C49.7892 52.6496 49.5711 53.115 49.1347 53.4824C48.6984 53.8499 48.1409 54.0213 47.4137 54.0213C46.6622 54.0213 46.0805 53.8499 45.6684 53.4824Z" fill="#404041"/>
<path d="M53.8858 50.151H54.9766V53.9234H53.91V53.3355C53.6676 53.7519 53.1586 54.0214 52.5041 54.0214C51.9466 54.0214 51.5345 53.8744 51.1951 53.5559C50.8558 53.2375 50.7346 52.7966 50.7346 51.9882V50.151H51.8254V52.0127C51.8254 52.4781 51.9223 52.7476 52.1405 52.9191C52.3344 53.0415 52.5041 53.0905 52.7707 53.0905C53.2555 53.0905 53.6434 52.8456 53.8131 52.4046C53.8615 52.2822 53.8858 52.1107 53.8858 51.9147V50.151V50.151Z" fill="#404041"/>
<path d="M59.0004 53.0413V53.9232H57.643C56.8916 53.9232 56.5764 53.6292 56.5764 52.8944V51.0082H55.8735V50.1263H56.5764V49.1465H57.6672V50.1508H59.0004V51.0327H57.6672V52.6739C57.6672 52.9434 57.7642 53.0413 58.1036 53.0413H59.0004Z" fill="#404041"/>
<path d="M65.5453 52.0372C65.5453 51.3758 65.0605 50.9348 64.2848 50.9348C63.5091 50.9348 63.0243 51.3513 63.0243 52.0372C63.0243 52.6985 63.5091 53.115 64.2848 53.115C65.0605 53.1395 65.5453 52.723 65.5453 52.0372ZM62.5637 53.4824C62.1274 53.115 61.9335 52.6496 61.9335 52.0372C61.9335 51.4248 62.1516 50.9348 62.5637 50.5919C63 50.2244 63.5818 50.053 64.309 50.053C65.0362 50.053 65.618 50.2244 66.0301 50.5919C66.4664 50.9593 66.6845 51.4248 66.6845 52.0372C66.6845 52.6496 66.4664 53.115 66.0301 53.4824C65.5937 53.8499 65.0362 54.0213 64.309 54.0213C63.5576 54.0213 63 53.8499 62.5637 53.4824Z" fill="#404041"/>
<path d="M70.1267 49.6364H69.4479C69.1571 49.6364 69.0601 49.7099 69.0601 49.9059V50.1508H70.1267V51.0327H69.0359V53.9232H67.9451V51.0327H67.3391V50.1508H67.9451V49.8569C67.9451 49.122 68.4056 48.7791 69.3752 48.7791H70.1267V49.6364Z" fill="#404041"/>
<path d="M76.0413 53.0413V53.9232H74.6838C73.9324 53.9232 73.6172 53.6292 73.6172 52.8944V51.0082H72.9143V50.1263H73.6172V49.1465H74.708V50.1508H76.0413V51.0327H74.708V52.6739C74.708 52.9434 74.805 53.0413 75.1444 53.0413H76.0413Z" fill="#404041"/>
<path d="M77.1078 53.9232V48.7791H78.1986V50.6897C78.4653 50.2978 78.9986 50.0528 79.6288 50.0528C80.1621 50.0528 80.5984 50.1998 80.9378 50.5183C81.2771 50.8367 81.4226 51.3021 81.4226 52.086V53.9232H80.3318V52.0615C80.3318 51.6206 80.2348 51.3756 80.0166 51.2042C79.847 51.0572 79.6046 51.0082 79.3622 51.0082C78.8531 51.0082 78.441 51.2776 78.2713 51.6941C78.2229 51.8166 78.1986 51.988 78.1986 52.184V53.9477H77.1078V53.9232Z" fill="#404041"/>
<path d="M83.5315 51.5962H85.8828C85.81 51.1553 85.3979 50.8858 84.7435 50.8858C84.1132 50.8858 83.6527 51.1553 83.5315 51.5962ZM83.0224 53.5069C82.6103 53.164 82.3922 52.6741 82.3922 52.0617C82.3922 51.4737 82.6103 50.9838 83.0467 50.6164C83.483 50.2489 84.0647 50.053 84.7435 50.053C85.4222 50.053 85.9797 50.2245 86.3918 50.5429C86.8281 50.8613 87.022 51.3023 87.022 51.8167C87.022 51.8657 87.022 51.9147 87.022 51.9637C87.022 52.0127 87.022 52.1106 86.9978 52.2821H83.483C83.5557 52.821 84.0647 53.115 84.8647 53.115C85.4464 53.115 86.0039 52.919 86.3433 52.6251L86.9251 53.2865C86.513 53.7274 85.6888 53.9968 84.7435 53.9968C84.0163 54.0213 83.4345 53.8499 83.0224 53.5069Z" fill="#404041"/>
<path d="M93.785 52.037C93.785 51.3756 93.3002 50.9592 92.5487 50.9592C91.7973 50.9592 91.2883 51.4001 91.2883 52.037C91.2883 52.6984 91.7973 53.1149 92.5487 53.1149C93.3002 53.1149 93.785 52.6984 93.785 52.037ZM90.1974 53.9232V48.7791H91.2883V50.5918C91.6519 50.2243 92.1609 50.0528 92.7669 50.0528C93.3971 50.0528 93.9062 50.2488 94.3183 50.5918C94.7303 50.9592 94.9243 51.4491 94.9243 52.037C94.9243 52.6249 94.7303 53.1149 94.3183 53.4578C93.9062 53.8252 93.3971 53.9967 92.7669 53.9967C92.1367 53.9967 91.6276 53.8007 91.264 53.4333V53.8987H90.1974V53.9232Z" fill="#404041"/>
<path d="M99.3602 52.0372C99.3602 51.3758 98.8754 50.9348 98.0997 50.9348C97.324 50.9348 96.8392 51.3513 96.8392 52.0372C96.8392 52.6985 97.324 53.115 98.0997 53.115C98.8754 53.1395 99.3602 52.723 99.3602 52.0372ZM96.3787 53.4824C95.9424 53.115 95.7484 52.6496 95.7484 52.0372C95.7484 51.4248 95.9666 50.9348 96.3787 50.5919C96.815 50.2244 97.3968 50.053 98.124 50.053C98.8512 50.053 99.4329 50.2244 99.845 50.5919C100.281 50.9593 100.5 51.4248 100.5 52.0372C100.5 52.6496 100.281 53.115 99.845 53.4824C99.4087 53.8499 98.8512 54.0213 98.124 54.0213C97.3725 54.0213 96.7908 53.8499 96.3787 53.4824Z" fill="#404041"/>
<path d="M105.76 53.9234H104.305L103.263 52.6986L102.196 53.9234H100.839L102.584 52.0372L100.863 50.151H102.293L103.311 51.3023L104.33 50.151H105.687L103.99 51.9882L105.76 53.9234Z" fill="#404041"/>
<path d="M56.3583 43.9043H53.4252V35.4042C53.4252 33.616 52.6496 32.6607 51.2194 32.5382C50.3467 32.4647 48.9408 32.6852 47.9227 32.9056V43.8799H44.9897V30.799C44.9897 30.799 48.553 29.9906 51.7527 29.9906C53.1344 29.9906 54.2494 30.4805 55.0736 31.3379C55.8977 32.1707 56.3098 33.3466 56.3098 34.8408V43.9043H56.3583Z" fill="#404041"/>
<path d="M105.687 44.0023C105.202 44.1248 104.717 44.1983 104.184 44.1983C102.536 44.1983 101.445 43.8308 100.912 43.0959C100.5 42.508 100.281 41.4057 100.281 39.789V26.1692H103.166V30.0151H105.735V32.3912H103.166V39.593C103.166 40.3769 103.263 40.8913 103.457 41.1363C103.699 41.4547 104.184 41.6017 104.935 41.6017C105.154 41.6017 105.396 41.5772 105.687 41.5527V44.0023Z" fill="#404041"/>
<path d="M15.3198 35.0369C15.3198 35.0369 11.9019 36.3841 7.65988 36.3841C3.4421 36.3841 0 35.0369 0 35.0369C0 35.0369 3.41786 33.6896 7.65988 33.6896C11.9019 33.6896 15.3198 35.0369 15.3198 35.0369Z" fill="#FFCC05"/>
<path d="M25.8885 15.3664C25.8885 15.3664 22.8585 13.3087 20.4829 9.83029C18.1317 6.35185 17.3317 2.79993 17.3317 2.79993C17.3317 2.79993 20.3617 4.8576 22.7373 8.33604C25.0886 11.79 25.8885 15.3664 25.8885 15.3664Z" fill="#FFCC05"/>
<path d="M18.1559 23.842C18.1559 23.842 14.4956 23.4256 10.7626 21.4659C7.02966 19.5062 4.62988 16.7382 4.62988 16.7382C4.62988 16.7382 8.29014 17.1546 12.0231 19.1143C15.7561 21.074 18.1559 23.842 18.1559 23.842Z" fill="#FFCC05"/>
<path d="M25.5248 41.4792C27.7064 41.4547 30.3243 39.74 30.3243 39.74C30.3243 39.74 24.24 37.8783 24.6279 32.3667C25.8156 23.3276 33.0634 16.2483 42.1292 15.097C41.1596 14.9745 40.19 14.901 39.1962 14.901C27.9972 14.95 18.9557 23.989 19.0042 35.0857C19.0526 46.1824 28.1912 55.148 39.3901 55.099C40.3355 55.099 41.2324 55.0255 42.1535 54.903C34.2027 53.8987 27.7306 48.3381 25.4036 41.0138" fill="#FFCC05"/>
<path d="M25.8885 54.6337C25.8885 54.6337 22.8585 56.6913 20.4829 60.1698C18.1317 63.6482 17.3317 67.2002 17.3317 67.2002C17.3317 67.2002 20.3617 65.1425 22.7373 61.664C25.0886 58.2101 25.8885 54.6337 25.8885 54.6337Z" fill="#FFCC05"/>
<path d="M18.1559 46.158C18.1559 46.158 14.4956 46.5744 10.7626 48.5341C7.02966 50.4937 4.62988 53.2618 4.62988 53.2618C4.62988 53.2618 8.29014 52.8454 12.0231 50.8857C15.7561 48.926 18.1559 46.158 18.1559 46.158Z" fill="#FFCC05"/>
<path d="M42.1293 26.1202H39.1478V43.8799H42.1293V26.1202Z" fill="#404041"/>
<path d="M72.0659 32.1952C72.0659 34.0079 71.5084 35.4777 70.3933 36.58C69.2783 37.6823 67.7754 38.2457 65.8604 38.2457H62.2487V43.8553H59.2671V26.0957H65.6423C67.7027 26.0957 69.3025 26.6346 70.3933 27.7369C71.5084 28.7903 72.0659 30.2845 72.0659 32.1952ZM69.0359 32.1952C69.0359 30.0396 67.9936 28.9617 65.9089 28.9617H62.2487V35.3797H65.8604C66.8543 35.3797 67.63 35.1102 68.2117 34.5468C68.7692 33.9834 69.0359 33.1996 69.0359 32.1952Z" fill="#404041"/>
<path d="M85.8585 36.8495C85.8585 38.9806 85.2768 40.7199 84.089 42.0182C82.9012 43.3164 81.3741 43.9778 79.4834 43.9778C77.5926 43.9778 76.0655 43.3164 74.8777 42.0182C73.69 40.7199 73.1082 38.9806 73.1082 36.8495C73.1082 34.7183 73.69 33.0036 74.8777 31.7053C76.0655 30.407 77.5926 29.7701 79.4834 29.7701C81.3983 29.7701 82.9255 30.407 84.1132 31.7053C85.2768 33.0036 85.8585 34.7183 85.8585 36.8495ZM82.8527 36.8495C82.8527 35.5022 82.5376 34.4489 81.9316 33.665C81.3256 32.8811 80.5015 32.4892 79.4834 32.4892C78.4653 32.4892 77.6411 32.8811 77.0351 33.6895C76.4291 34.4734 76.114 35.5267 76.114 36.8495C76.114 38.1968 76.4291 39.2501 77.0351 40.034C77.6411 40.8178 78.4653 41.2098 79.4834 41.2098C80.5015 41.2098 81.3256 40.8178 81.9316 40.034C82.5376 39.2501 82.8527 38.1968 82.8527 36.8495Z" fill="#404041"/>
<path d="M98.5603 39.299C98.5603 40.6463 98.0513 41.7486 97.009 42.606C95.9666 43.4633 94.6092 43.9043 92.9124 43.9043C90.2702 43.9043 88.234 43.1204 86.7796 41.5282L89.0097 39.642C90.1248 40.7443 91.4095 41.2832 92.8881 41.2832C93.7123 41.2832 94.3668 41.1117 94.8516 40.7933C95.3364 40.4748 95.5788 40.0584 95.5788 39.5685C95.5788 39.0051 95.3122 38.6131 94.7546 38.3927C94.4395 38.2702 93.5669 38.0987 92.1852 37.8782C90.5126 37.6333 89.3248 37.2658 88.5976 36.7759C87.7492 36.188 87.3372 35.2817 87.3372 34.0814C87.3372 32.8566 87.8462 31.8522 88.8643 31.0194C89.8824 30.211 91.2398 29.7946 92.9366 29.7946C94.9728 29.7946 96.7423 30.4804 98.1725 31.8277L96.4272 33.6894C95.3849 32.7586 94.1729 32.2932 92.8397 32.2932C91.1186 32.2932 90.2702 32.7831 90.2702 33.7384C90.2702 34.3018 90.658 34.6938 91.458 34.9142C92.573 35.0857 93.6638 35.2817 94.7546 35.4776C97.2998 35.9431 98.5603 37.2169 98.5603 39.299Z" fill="#404041"/>
</svg>
